<svg width="100" height="100" viewBox="0 0 100 100" fill="none" xmlns="http://www.w3.org/2000/svg">
<path d="M5.0148 97.63C4.31602 97.6507 3.61724 97.5057 2.95956 97.2571C2.36353 97.0086 1.80862 96.6357 1.37702 96.1593C0.924861 95.6415 0.575469 95.0408 0.369945 94.3987C-0.123315 92.8452 -0.123315 91.1881 0.369945 89.6554C0.596022 88.9925 0.945414 88.3919 1.39757 87.8947C1.82917 87.4183 2.38409 87.0248 2.98011 86.7969C3.63779 86.5277 4.33657 86.4034 5.03536 86.4241C5.42585 86.4241 5.8369 86.4448 6.2274 86.5069C6.55624 86.5484 6.86453 86.6105 7.19337 86.6934C7.41944 86.7555 7.66607 86.8384 7.8716 86.9419C7.99491 87.0041 8.13878 87.0662 8.24154 87.1491L7.85105 88.3297C7.52221 88.1847 7.19337 88.0604 6.86453 87.9569C6.33016 87.8119 5.75469 87.729 5.19978 87.7497C4.70652 87.7497 4.21326 87.8326 3.74055 87.9983C3.3295 88.164 2.95956 88.4126 2.65127 88.7233C2.34298 89.0547 2.1169 89.4275 1.95249 89.8418C1.76751 90.3182 1.66475 90.7946 1.62365 91.3124H6.30961V92.5759H1.58254C1.62365 93.1145 1.72641 93.6323 1.91138 94.1294C2.0758 94.5644 2.30188 94.9787 2.61016 95.3101C2.91845 95.6415 3.2884 95.9108 3.69945 96.0765C4.17215 96.2629 4.66541 96.3665 5.17922 96.3457C5.75469 96.3665 6.30961 96.2836 6.86453 96.1386C7.21392 96.035 7.54276 95.9108 7.8716 95.7451L8.2621 96.9879C8.13878 97.0707 8.01547 97.1328 7.8716 97.1743C7.64552 97.2571 7.41944 97.34 7.17281 97.4021C6.84397 97.485 6.51513 97.5471 6.1863 97.5885C5.81635 97.63 5.42585 97.6507 5.0148 97.63Z" fill="white"/>
<path d="M9.63916 96.2205H10.5024C10.8312 95.7441 11.0984 95.2263 11.3039 94.6878C11.5094 94.1492 11.6533 93.6107 11.7561 93.0514C11.8588 92.4715 11.941 91.8708 11.9616 91.2908C12.0027 90.6694 12.0232 90.0273 12.0232 89.3438H17.2847V96.2413H18.374V99.6797H17.0175V97.4012H10.9956V99.6589H9.63916V96.2205ZM15.846 96.2205V90.5244H13.3386C13.3181 91.0215 13.2975 91.4979 13.2564 91.995C13.2153 92.4922 13.1536 92.9686 13.0509 93.4657C12.9687 93.9421 12.8248 94.4185 12.6604 94.8742C12.496 95.3506 12.2699 95.7856 12.0232 96.2205H15.846Z" fill="white"/>
<path d="M27.0884 89.3203V97.3985H25.6908V91.2466C25.3825 91.6402 25.0331 92.0959 24.6632 92.6344C24.2932 93.173 23.9233 93.7115 23.5534 94.2708C23.1834 94.83 22.834 95.3893 22.4846 95.9486C22.1352 96.5078 21.8475 96.9842 21.6009 97.4192H20.3472V89.341H21.7447V95.1615C22.0119 94.7265 22.3202 94.2294 22.649 93.6908C22.9779 93.1523 23.3273 92.6344 23.6972 92.1166C24.0672 91.5988 24.4371 91.0809 24.7865 90.6045C25.1359 90.1281 25.4853 89.7139 25.8141 89.3617L27.0884 89.3203Z" fill="white"/>
<path d="M36.5631 97.3985H35.1244V93.8358H31.425V97.3985H29.9863V89.3203H31.425V92.6137H35.1244V89.3203H36.5631V97.3985Z" fill="white"/>
<path d="M42.071 89.1145C42.5642 89.0937 43.0575 89.1766 43.5302 89.3423C43.9001 89.4666 44.229 89.6944 44.4756 89.9844C44.7222 90.2744 44.9072 90.6058 44.9894 90.9579C45.0922 91.3722 45.1538 91.7865 45.1538 92.2007V97.2548L44.64 97.3376C44.414 97.379 44.1673 97.3998 43.9001 97.4412C43.633 97.4826 43.3247 97.5033 42.9958 97.524C42.667 97.5448 42.3587 97.5655 42.0299 97.5655C41.6188 97.5655 41.1872 97.524 40.7762 97.4205C40.4268 97.3376 40.0774 97.1926 39.7897 96.9855C39.5019 96.7784 39.2964 96.5091 39.1525 96.1777C38.9881 95.8048 38.9059 95.3906 38.9264 94.9763C38.9059 94.5828 39.0087 94.1892 39.1936 93.8371C39.3786 93.5264 39.6252 93.2571 39.9335 93.05C40.2624 92.8428 40.6323 92.6978 41.0228 92.615C41.4544 92.5114 41.886 92.47 42.3176 92.47C42.4615 92.47 42.6053 92.47 42.7698 92.4907C42.9342 92.5114 43.078 92.5321 43.2014 92.5529L43.5713 92.615L43.7974 92.6564V92.2422C43.7974 92.0143 43.7768 91.7658 43.7152 91.5379C43.6741 91.3101 43.5713 91.1029 43.4274 90.9165C43.2836 90.7301 43.0986 90.5851 42.8725 90.4815C42.5848 90.3573 42.2765 90.3158 41.9682 90.3158C41.5572 90.3158 41.1256 90.3365 40.7145 90.4194C40.4473 90.4608 40.1801 90.523 39.913 90.6265L39.7485 89.4252C40.0568 89.3009 40.3651 89.2387 40.6734 89.1766C41.1256 89.1352 41.5983 89.1145 42.071 89.1145ZM42.1943 96.3641C42.5231 96.3641 42.8314 96.3641 43.0986 96.3434C43.3247 96.3434 43.5302 96.302 43.7563 96.2605V93.8578C43.5919 93.7957 43.4274 93.7542 43.263 93.7335C42.7492 93.6714 42.2354 93.6714 41.7421 93.7335C41.5161 93.7542 41.29 93.8371 41.0845 93.9199C40.8995 94.0235 40.7145 94.1478 40.5912 94.3342C40.4473 94.5206 40.3857 94.7692 40.3857 95.0177C40.3857 95.5356 40.5501 95.8877 40.8789 96.0948C41.2489 96.2812 41.7216 96.3848 42.1943 96.3641Z" fill="white"/>
<path d="M51.8335 97.3998V86.6289H53.3338V96.1156H57.3416V86.6289H58.8419V96.1156H62.8496V86.6289H64.35V97.3998H51.8335Z" fill="white"/>
<path d="M70.0635 93.0085C70.4335 93.2777 70.7623 93.5677 71.0911 93.8784C71.4611 94.2305 71.831 94.6034 72.1804 94.9969C72.5298 95.3905 72.8792 95.8047 73.1875 96.2397C73.4958 96.6747 73.763 97.0475 73.9685 97.4204H72.2832C72.0366 97.0475 71.7694 96.6747 71.4816 96.3433C71.1733 95.9705 70.8651 95.6183 70.5362 95.2869C70.2074 94.9555 69.8785 94.6241 69.5291 94.3341C69.2209 94.0648 68.9126 93.837 68.5632 93.6091V97.3997H67.1245V89.3215H68.5632V92.7806C68.8098 92.5321 69.0976 92.2628 69.4058 91.9521C69.7141 91.6414 70.043 91.31 70.3718 90.9786C70.7006 90.6471 70.9884 90.3364 71.2761 90.0465C71.5638 89.7565 71.7899 89.5079 71.9543 89.3008H73.6191C73.393 89.5493 73.1258 89.8393 72.8175 90.15C72.5093 90.4607 72.201 90.7921 71.8721 91.1236L70.9062 92.1178C70.6184 92.4492 70.3307 92.7392 70.0635 93.0085Z" fill="white"/>
<path d="M82.2922 93.3627C82.2922 93.9634 82.21 94.5434 82.0045 95.1026C81.8401 95.5998 81.5729 96.0554 81.2235 96.449C80.8947 96.8218 80.4836 97.1118 80.0315 97.319C79.0655 97.7125 77.9762 97.7125 77.0103 97.319C76.5581 97.1118 76.1471 96.8218 75.8182 96.449C75.4688 96.0554 75.2016 95.5998 75.0372 95.1026C74.6673 93.9841 74.6673 92.762 75.0372 91.6228C75.2016 91.1257 75.4688 90.67 75.8182 90.2765C76.1471 89.9036 76.5581 89.6136 77.0103 89.4065C77.9762 89.0129 79.0655 89.0129 80.0315 89.4065C80.4836 89.6136 80.8947 89.9036 81.2235 90.2765C81.5729 90.67 81.8401 91.1257 82.0045 91.6228C82.21 92.1821 82.2922 92.7828 82.2922 93.3627ZM80.7919 93.3627C80.7919 92.4513 80.5864 91.7264 80.1753 91.1878C79.4355 90.2557 78.0995 90.1107 77.1747 90.8564C77.0514 90.96 76.9486 91.0636 76.8458 91.1878C76.4348 91.7264 76.2293 92.4513 76.2293 93.3627C76.2293 94.2741 76.4348 94.9991 76.8458 95.5376C77.5857 96.4697 78.9216 96.6147 79.8465 95.869C79.9698 95.7655 80.0726 95.6619 80.1753 95.5376C80.5864 94.9991 80.7919 94.2741 80.7919 93.3627Z" fill="white"/>
<path d="M87.3276 90.5436C87.3276 90.875 87.3276 91.2478 87.3071 91.6414C87.2865 92.0349 87.266 92.4285 87.2249 92.8013C87.1838 93.1742 87.1221 93.5677 87.0605 93.9613C86.9988 94.3134 86.896 94.6862 86.7727 95.0176C86.67 95.3491 86.5261 95.6598 86.3411 95.9497C86.1767 96.2397 85.9712 96.4883 85.7246 96.7161C85.4574 96.944 85.1696 97.1304 84.8613 97.2754C84.4914 97.4411 84.1009 97.5239 83.7104 97.5654L83.5049 96.3433C83.957 96.2604 84.3681 96.074 84.6969 95.7633C85.0052 95.4733 85.2313 95.1212 85.3957 94.7277C85.5601 94.3341 85.6629 93.9405 85.7451 93.5263C85.8068 93.0913 85.8684 92.6149 85.9095 92.1385C85.9506 91.6621 85.9506 91.165 85.9712 90.6886C85.9917 90.2122 85.9712 89.7358 85.9712 89.3008H91.3148V97.379H89.8762V90.5022H87.3276V90.5436Z" fill="white"/>
<path d="M96.5968 89.1145C97.0901 89.0937 97.5834 89.1766 98.0561 89.3423C98.426 89.4666 98.7549 89.6944 99.0015 89.9844C99.2481 90.2744 99.4125 90.6058 99.5153 90.9579C99.6181 91.3722 99.6797 91.7865 99.6797 92.2007V97.2548L99.1659 97.3376C98.9398 97.379 98.6932 97.3998 98.426 97.4412C98.1588 97.4826 97.8506 97.5033 97.5217 97.524C97.1929 97.5448 96.8846 97.5655 96.5557 97.5655C96.1447 97.5655 95.7131 97.524 95.302 97.4205C94.9527 97.3376 94.6033 97.1926 94.3155 96.9855C94.0278 96.7784 93.8223 96.5091 93.6784 96.1777C93.514 95.8048 93.4318 95.3906 93.4523 94.9763C93.4318 94.5828 93.5345 94.1892 93.7195 93.8371C93.9045 93.5264 94.1511 93.2571 94.4594 93.05C94.7882 92.8428 95.1582 92.6978 95.5487 92.615C95.9803 92.5114 96.4119 92.47 96.8435 92.47C96.9873 92.47 97.1518 92.47 97.2956 92.4907C97.4601 92.5114 97.6039 92.5321 97.7272 92.5529L98.0972 92.615L98.3027 92.6564V92.2422C98.3027 92.0143 98.2822 91.7658 98.2205 91.5379C98.1794 91.3101 98.0766 91.1029 97.9328 90.9165C97.7889 90.7301 97.6039 90.5851 97.3778 90.4815C97.0901 90.3573 96.7818 90.3158 96.4735 90.3158C96.0625 90.3158 95.6514 90.3365 95.2404 90.4194C94.9732 90.4608 94.706 90.523 94.4388 90.6265L94.2744 89.4252C94.5827 89.3216 94.891 89.2387 95.1993 89.1766C95.6514 89.1352 96.1241 89.1145 96.5968 89.1145ZM96.7202 96.3641C97.049 96.3641 97.3573 96.3641 97.6245 96.3434C97.8506 96.3434 98.0561 96.302 98.2822 96.2605V93.8578C98.1177 93.7957 97.9533 93.7542 97.7889 93.7335C97.2751 93.6714 96.7613 93.6714 96.268 93.7335C96.0419 93.7542 95.8159 93.8371 95.6103 93.9199C95.4254 94.0235 95.2404 94.1478 95.1171 94.3342C94.9732 94.5206 94.9115 94.7692 94.9115 95.0177C94.9115 95.5356 95.076 95.8877 95.4048 96.0948C95.7748 96.2812 96.2475 96.3848 96.7202 96.3641Z" fill="white"/>
<path d="M15.1885 32.4367L22.0325 20.5059L42.5849 32.4781L35.7615 44.409L15.1885 32.4367Z" fill="url(#paint0_linear)"/>
<path d="M22.0737 56.507L28.8972 44.5762L49.4702 56.5484L42.6262 68.4793L22.0737 56.507Z" fill="url(#paint1_linear)"/>
<path d="M51.5458 0L21.642 14.7478C17.9425 19.9676 15.7228 26.078 15.1885 32.4784L69.4059 5.73757C64.0623 2.23703 57.8965 0.248559 51.5458 0Z" fill="url(#paint2_linear)"/>
<path d="M18.6412 50.9355C19.6072 52.9033 20.7376 54.7675 22.0324 56.5281L84.0598 25.9346C82.9088 21.7091 80.9769 17.7322 78.3667 14.2109L16.3394 44.8044C16.9148 46.9172 17.6753 48.9678 18.6412 50.9355Z" fill="url(#paint3_linear)"/>
<path d="M48.8327 70.7557L78.7366 56.0079C82.436 50.7881 84.6557 44.6777 85.19 38.2773L30.9932 65.0182C36.3163 68.5187 42.482 70.5072 48.8327 70.7557Z" fill="url(#paint4_linear)"/>
<defs>
<linearGradient id="paint0_linear" x1="15.1909" y1="32.4619" x2="42.5934" y2="32.4619" gradientUnits="userSpaceOnUse">
<stop stop-color="#89BAD1"/>
<stop offset="0.43" stop-color="#84B4CA"/>
<stop offset="1" stop-color="#79A4B8"/>
</linearGradient>
<linearGradient id="paint1_linear" x1="22.0659" y1="56.5263" x2="49.4683" y2="56.5263" gradientUnits="userSpaceOnUse">
<stop stop-color="#89BAD1"/>
<stop offset="0.43" stop-color="#84B4CA"/>
<stop offset="1" stop-color="#79A4B8"/>
</linearGradient>
<linearGradient id="paint2_linear" x1="15.1828" y1="16.2371" x2="69.4002" y2="16.2371" gradientUnits="userSpaceOnUse">
<stop stop-color="#A0D8F2"/>
<stop offset="0.17" stop-color="#A7DBEB"/>
<stop offset="0.43" stop-color="#BBE3D7"/>
<stop offset="0.73" stop-color="#DBF1B7"/>
<stop offset="1" stop-color="#FEFF94"/>
</linearGradient>
<linearGradient id="paint3_linear" x1="16.3378" y1="35.3799" x2="84.0459" y2="35.3799" gradientUnits="userSpaceOnUse">
<stop stop-color="#A0D8F2"/>
<stop offset="0.17" stop-color="#A7DBEB"/>
<stop offset="0.43" stop-color="#BBE3D7"/>
<stop offset="0.73" stop-color="#DBF1B7"/>
<stop offset="1" stop-color="#FEFF94"/>
</linearGradient>
<linearGradient id="paint4_linear" x1="30.9916" y1="54.5228" x2="85.2008" y2="54.5228" gradientUnits="userSpaceOnUse">
<stop stop-color="#A0D8F2"/>
<stop offset="0.17" stop-color="#A7DBEB"/>
<stop offset="0.43" stop-color="#BBE3D7"/>
<stop offset="0.73" stop-color="#DBF1B7"/>
<stop offset="1" stop-color="#FEFF94"/>
</linearGradient>
</defs>
</svg>
